<?xml version="1.0" standalone="no"?>
<!DOCTYPE svg PUBLIC "-//W3C//DTD SVG 20010904//EN"
 "http://www.w3.org/TR/2001/REC-SVG-20010904/DTD/svg10.dtd">
<svg version="1.0" xmlns="http://www.w3.org/2000/svg"
 width="1166.000000pt" height="1166.000000pt" viewBox="0 0 1166.000000 1166.000000"
 preserveAspectRatio="xMidYMid meet">
<metadata>
Created by potrace 1.14, written by Peter Selinger 2001-2017
</metadata>
<g transform="translate(0.000000,1166.000000) scale(0.100000,-0.100000)"
fill="#000000" stroke="none">
<path d="M4398 8615 c-2 -1 -48 -5 -103 -9 -55 -3 -118 -9 -140 -12 -22 -3
-56 -7 -75 -9 -19 -2 -35 -4 -35 -5 0 -1 -16 -3 -35 -6 -19 -2 -60 -9 -90 -15
-30 -5 -66 -12 -80 -15 -78 -14 -311 -86 -385 -119 -245 -108 -375 -192 -520
-339 -97 -98 -115 -120 -170 -205 -111 -173 -182 -360 -211 -558 -3 -26 -9
-57 -11 -68 -10 -38 -11 -401 -3 -470 14 -110 19 -147 25 -185 7 -41 23 -124
31 -160 3 -14 7 -34 9 -45 2 -11 4 -21 5 -22 3 -3 3 -3 15 -58 11 -55 12 -58
20 -76 5 -13 -8 -24 -58 -48 -36 -18 -114 -58 -174 -91 -59 -33 -116 -60 -125
-60 -9 0 -29 11 -45 24 l-27 24 0 694 0 694 39 69 c89 157 136 284 153 412 13
109 7 329 -12 423 -3 14 -8 37 -11 53 -3 15 -8 39 -11 55 -3 15 -7 32 -8 37
-3 18 -17 35 -25 31 -4 -3 -48 -8 -97 -11 -49 -3 -114 -7 -144 -10 -118 -8
-391 -18 -505 -18 -110 0 -185 3 -455 20 -550 33 -786 -54 -888 -330 -12 -31
-22 -59 -22 -62 0 -3 0 -6 -1 -7 -10 -30 -24 -278 -16 -278 4 0 41 12 84 26
79 26 298 81 350 89 15 2 75 11 132 20 235 36 506 36 780 0 136 -17 432 -26
489 -14 29 6 36 2 30 -18 -2 -4 -12 -8 -23 -9 -11 -1 -49 -4 -85 -7 -110 -11
-313 -7 -425 7 -243 31 -481 35 -685 10 -30 -3 -68 -8 -85 -9 -39 -5 -88 -14
-195 -36 -30 -7 -62 -13 -70 -14 -8 -1 -22 -5 -30 -8 -8 -3 -49 -15 -90 -27
-41 -12 -98 -31 -128 -42 -53 -20 -53 -20 -48 -56 3 -21 8 -59 11 -87 6 -57
12 -93 25 -150 5 -22 12 -56 15 -75 3 -19 12 -64 20 -100 9 -36 19 -83 23
-105 7 -32 12 -39 28 -37 22 3 49 10 49 12 0 1 7 3 15 5 8 1 53 12 100 23 118
29 174 41 218 48 20 3 48 8 62 11 14 3 95 6 180 8 116 1 162 -1 183 -12 15 -7
27 -18 27 -24 0 -5 -21 -22 -46 -37 -26 -15 -51 -32 -58 -37 -6 -6 -24 -18
-39 -28 -16 -10 -41 -38 -56 -62 l-28 -44 0 -1322 -1 -1321 -26 -21 c-27 -22
-30 -23 -106 -32 -60 -8 -175 -39 -225 -61 -22 -10 -42 -18 -45 -18 -3 -1 -37
-19 -75 -41 -172 -99 -304 -295 -321 -477 -3 -32 -3 -58 -1 -58 2 0 40 12 83
26 43 14 90 27 104 30 13 3 55 12 93 20 38 8 92 17 120 20 29 3 79 9 112 14
68 9 429 6 490 -4 22 -4 51 -9 65 -12 27 -6 48 -9 120 -18 25 -3 61 -9 81 -12
127 -19 406 -17 499 4 19 4 41 8 49 7 21 0 24 -21 4 -22 -10 -1 -30 -4 -45 -7
-44 -9 -80 -15 -126 -21 -23 -3 -63 -8 -90 -11 -65 -8 -132 -10 -132 -4 0 3
-28 6 -63 6 -58 1 -182 11 -182 14 0 1 -9 3 -20 5 -11 1 -38 5 -60 9 -22 3
-51 8 -65 11 -99 20 -393 27 -523 13 -39 -4 -95 -10 -122 -12 -58 -5 -290 -57
-350 -79 l-40 -14 0 -109 c-1 -120 22 -269 55 -368 21 -64 43 -96 54 -78 3 5
27 13 53 17 27 5 55 10 63 12 8 2 30 5 49 8 18 3 36 7 40 9 4 3 38 8 76 11 38
4 78 9 90 11 38 9 311 3 335 -6 3 -1 8 -2 12 -1 3 0 30 -6 60 -13 69 -18 177
-36 253 -41 99 -8 316 -8 379 -1 63 7 237 61 246 76 3 5 14 13 25 17 27 11
125 77 125 84 0 3 20 26 44 51 46 48 100 134 128 203 38 95 43 130 42 295 0
196 -7 273 -36 428 l-12 62 -35 -6 c-20 -4 -43 -10 -51 -14 -14 -8 -60 -17
-123 -26 -16 -2 -32 -6 -36 -8 -19 -12 -178 -17 -205 -6 -34 13 -29 18 44 49
196 81 286 140 347 227 47 67 49 85 48 505 0 256 4 396 10 397 6 1 42 10 82
21 86 24 136 32 195 32 60 0 70 -3 120 -34 93 -60 130 -159 124 -335 -3 -65
-7 -130 -10 -147 -3 -16 -8 -43 -11 -60 -3 -16 -7 -39 -9 -50 -2 -11 -7 -40
-10 -65 -3 -25 -8 -56 -11 -70 -2 -14 -7 -41 -9 -60 -3 -19 -7 -44 -10 -55
-27 -130 -28 -523 0 -617 3 -9 7 -26 9 -37 3 -12 8 -31 11 -43 3 -13 7 -32 9
-43 7 -36 53 -152 90 -226 135 -269 351 -452 610 -519 155 -40 284 -44 496
-16 89 12 335 105 353 134 3 4 -37 16 -89 26 -112 21 -225 60 -320 110 -94 50
-107 58 -127 80 -10 10 -18 16 -18 12 0 -9 -56 40 -128 114 -92 94 -159 199
-233 365 -12 28 -48 143 -53 172 -3 13 -8 33 -11 44 -27 84 -39 415 -22 559
12 96 21 153 33 215 2 11 7 34 9 50 18 100 28 159 40 215 2 14 7 48 11 75 3
28 8 52 9 55 2 3 7 44 11 90 26 289 -13 417 -145 478 -50 24 -68 26 -171 27
-63 0 -140 -4 -170 -8 -30 -5 -66 -10 -80 -11 -14 -2 -32 -6 -40 -9 -8 -3 -40
-11 -70 -18 -67 -15 -164 -45 -207 -65 -17 -8 -34 -14 -37 -14 -4 0 -39 -15
-79 -34 -40 -18 -79 -36 -87 -40 -8 -3 -37 -19 -65 -35 -27 -16 -53 -27 -58
-24 -8 5 46 53 61 53 6 0 12 4 14 8 10 25 238 135 348 168 30 9 62 18 70 22
19 7 18 6 60 15 19 4 46 9 60 12 142 29 287 36 381 19 196 -36 275 -165 264
-429 -5 -133 -14 -216 -30 -291 -3 -12 -7 -39 -10 -60 -9 -55 -12 -75 -19
-104 -3 -14 -8 -41 -11 -60 -2 -19 -7 -46 -10 -60 -70 -330 -64 -657 17 -918
11 -37 21 -69 21 -72 4 -22 79 -160 122 -225 58 -87 122 -157 200 -220 28 -22
52 -42 55 -45 16 -16 129 -78 165 -91 19 -7 35 -17 35 -21 0 -4 3 -7 8 -6 4 1
36 -8 72 -19 66 -21 165 -44 210 -48 14 -2 25 -4 25 -5 0 -1 15 -3 34 -4 31
-2 44 7 116 79 45 44 99 107 121 140 45 68 94 158 94 172 0 5 -37 35 -82 66
-153 103 -273 229 -336 352 -14 27 -27 55 -28 60 -2 6 -12 34 -23 63 -12 28
-19 52 -16 52 3 0 2 8 -4 18 -30 58 -34 403 -5 587 2 17 6 53 9 80 2 28 5 50
5 50 1 0 3 18 5 40 3 22 6 58 9 80 26 203 26 487 1 605 -2 14 -7 36 -10 50 -6
31 -30 99 -56 155 -15 33 -78 128 -106 160 -30 35 -124 105 -173 130 -46 23
-156 63 -195 71 -11 2 -31 6 -45 9 -86 19 -321 26 -412 12 -46 -6 -47 -6 -54
26 -4 18 -8 41 -9 52 -1 11 -4 27 -8 35 -9 24 -28 159 -34 240 -12 154 -5 302
19 413 5 27 11 54 12 60 6 33 41 130 72 195 65 140 168 271 277 355 16 12 41
31 55 43 72 55 282 163 352 179 3 1 43 13 90 28 47 14 101 28 120 32 44 7 69
12 100 19 106 24 438 24 605 0 17 -2 50 -6 75 -9 25 -3 61 -8 80 -11 19 -3 51
-7 70 -10 19 -2 58 -8 85 -14 72 -13 115 -20 160 -26 22 -3 47 -8 55 -11 8 -3
31 -8 50 -10 19 -2 51 -8 70 -13 19 -5 55 -12 80 -15 24 -3 62 -10 83 -16 22
-6 45 -8 53 -5 8 3 14 2 14 -2 0 -4 8 -8 18 -9 10 -1 56 -9 102 -18 47 -8 101
-18 120 -21 19 -3 58 -9 85 -14 68 -12 114 -20 150 -25 17 -2 44 -6 60 -9 17
-3 57 -8 90 -12 33 -3 74 -8 90 -10 139 -20 296 -28 535 -28 250 0 393 7 548
28 23 3 61 9 85 12 67 9 91 12 112 17 85 20 82 20 60 5 -21 -15 -163 -60 -230
-73 -5 -1 -12 -3 -15 -4 -3 -1 -25 -4 -49 -7 -25 -2 -56 -7 -70 -10 -41 -8
-207 -18 -308 -19 -51 0 -93 -3 -93 -6 0 -3 -23 -3 -50 1 -28 4 -53 3 -56 -2
-3 -5 -9 -6 -13 -3 -5 2 -64 7 -132 10 -133 7 -149 8 -279 20 -47 4 -93 8
-102 9 -10 0 -18 4 -18 9 0 4 -4 6 -9 3 -5 -4 -44 -1 -88 5 -43 6 -89 13 -103
15 -14 2 -38 6 -55 9 -16 2 -48 7 -70 10 -22 3 -51 7 -65 10 -14 3 -38 8 -55
11 -16 3 -41 7 -55 10 -14 2 -36 6 -50 8 -14 2 -50 9 -80 15 -30 6 -68 13 -85
16 -16 2 -55 9 -85 15 -70 14 -110 21 -135 25 -59 9 -102 17 -115 20 -8 2 -33
7 -55 10 -23 3 -52 8 -65 11 -14 2 -41 7 -60 9 -19 3 -60 9 -90 15 -30 5 -82
12 -115 16 -33 3 -71 8 -85 10 -103 13 -154 17 -296 19 -158 2 -199 -1 -369
-30 -32 -6 -77 -18 -190 -49 -43 -12 -204 -82 -247 -108 -27 -15 -48 -24 -48
-20 0 4 -4 1 -8 -6 -5 -7 -22 -20 -39 -30 -85 -47 -283 -244 -283 -281 0 -6
-4 -11 -10 -11 -5 0 -10 -6 -10 -14 0 -8 -3 -16 -7 -18 -7 -2 -52 -88 -58
-108 -2 -6 -13 -36 -30 -80 -12 -31 -26 -87 -40 -160 -24 -122 -24 -373 0
-506 27 -148 32 -169 46 -168 37 4 69 15 127 43 35 17 71 32 80 34 9 1 23 6
30 10 6 5 12 6 12 3 0 -2 15 0 33 5 17 6 57 12 87 15 30 3 56 6 56 7 1 1 -4
34 -11 72 -49 280 73 532 310 640 33 15 68 31 77 36 40 20 195 53 308 65 48 6
305 5 360 0 25 -3 70 -7 100 -10 60 -5 123 -13 185 -22 22 -4 54 -8 70 -10 17
-1 45 -5 63 -8 17 -3 47 -8 65 -11 17 -2 50 -8 72 -12 22 -3 45 -7 50 -8 15
-1 117 -17 140 -21 11 -2 63 -11 115 -20 52 -9 102 -18 112 -19 9 -2 38 -7 65
-11 26 -3 57 -8 68 -10 83 -16 148 -24 156 -19 5 4 9 2 9 -2 0 -5 15 -10 33
-11 18 -1 44 -5 57 -7 58 -12 107 -19 215 -31 28 -2 66 -7 85 -9 132 -17 340
-24 462 -14 34 2 59 0 60 -6 3 -10 -6 -15 -152 -86 -133 -64 -215 -136 -230
-202 -4 -18 -7 -474 -8 -1013 0 -538 -3 -1006 -6 -1039 -13 -137 -21 -184 -51
-316 -8 -37 -56 -118 -81 -138 -89 -70 -177 28 -231 254 -5 20 -6 29 -18 99
-4 21 -9 48 -11 60 -26 129 -24 688 2 821 2 11 7 40 10 65 3 25 7 56 10 70 2
14 7 41 10 60 3 19 14 71 25 115 12 44 22 85 23 90 1 6 5 16 9 23 5 6 6 12 3
12 -3 0 3 20 14 44 14 34 16 47 7 53 -35 24 -85 47 -165 73 -105 35 -148 44
-268 56 l-60 6 -13 -48 c-6 -27 -13 -56 -15 -64 -2 -8 -6 -22 -9 -30 -5 -13
-50 -191 -62 -245 -2 -11 -8 -35 -14 -52 -5 -18 -8 -33 -6 -33 3 0 0 -11 -5
-24 -5 -13 -12 -44 -15 -67 -3 -24 -12 -73 -20 -109 -14 -66 -25 -129 -30
-165 -2 -11 -6 -40 -10 -65 -4 -25 -9 -58 -10 -75 -2 -16 -4 -30 -5 -30 -2 0
-5 -34 -16 -175 -13 -167 -8 -420 10 -507 8 -40 18 -113 16 -119 -1 -4 2 -10
7 -13 4 -3 14 -26 20 -51 6 -25 17 -58 23 -75 6 -16 12 -32 13 -35 0 -3 19
-39 40 -80 39 -75 102 -159 145 -193 12 -10 28 -25 35 -32 41 -40 196 -117
264 -130 10 -2 18 -4 18 -5 0 -6 157 -23 215 -23 71 -1 176 10 218 22 17 5 32
7 32 3 0 -3 5 -1 12 6 7 7 17 12 24 12 6 0 29 8 50 17 22 9 42 16 47 15 4 -1
7 3 7 8 0 6 5 10 11 10 29 0 228 168 229 193 0 5 6 15 13 22 33 38 97 155 97
179 0 9 4 16 9 16 5 0 11 10 14 22 3 13 17 63 31 112 14 50 28 108 32 130 3
23 7 52 10 66 13 76 15 300 17 1335 2 868 5 1145 14 1160 l12 20 2 -20 c1 -11
4 -31 6 -45 6 -38 10 -2380 4 -2380 -4 0 -7 -12 -7 -27 -2 -46 -13 -115 -24
-158 -6 -22 -13 -51 -16 -65 -15 -74 -59 -187 -121 -305 -37 -71 -139 -185
-213 -239 -89 -65 -208 -118 -298 -132 -20 -3 -56 -9 -78 -13 -59 -11 -248 -6
-319 8 -126 26 -227 69 -315 134 -54 41 -65 51 -124 118 -92 103 -184 323
-211 504 -3 22 -9 56 -12 75 -4 19 -7 125 -7 235 -1 199 4 283 28 460 15 113
24 172 33 210 10 46 13 62 17 95 9 58 52 245 96 410 46 175 44 167 54 199 11
33 -4 39 -88 36 -100 -5 -133 -10 -205 -36 -207 -71 -370 -243 -483 -509 -37
-86 -84 -236 -94 -300 -3 -19 -8 -38 -10 -41 -4 -6 -7 -26 -20 -114 -3 -22 -7
-49 -8 -60 -20 -120 -26 -459 -12 -625 5 -52 10 -111 11 -130 2 -19 4 -35 5
-35 1 0 3 -11 5 -25 5 -33 11 -65 25 -125 6 -27 14 -61 16 -75 18 -92 129
-356 169 -400 8 -9 15 -20 15 -23 0 -15 94 -129 157 -192 136 -134 348 -249
563 -305 105 -28 197 -43 343 -57 82 -7 359 -10 372 -4 6 3 26 6 45 8 46 2
163 18 210 28 193 41 405 134 534 235 38 30 120 106 155 144 49 53 141 178
141 193 0 6 3 13 8 15 10 4 68 119 65 129 -2 5 2 9 7 9 6 0 10 8 10 18 0 10 3
22 7 26 15 15 75 198 89 276 3 14 10 45 15 70 6 25 12 52 14 60 4 23 16 110
21 160 10 102 28 145 85 199 21 20 42 36 46 37 5 0 20 6 35 12 45 19 117 25
281 26 130 1 159 -2 167 -14 5 -8 10 -17 10 -20 0 -9 -119 -70 -136 -70 -8 0
-14 -4 -14 -10 0 -5 -7 -10 -15 -10 -9 0 -36 -20 -61 -44 l-44 -44 5 -103 c3
-57 7 -114 9 -125 2 -12 7 -39 10 -60 4 -22 11 -57 17 -79 6 -22 13 -49 15
-60 13 -72 122 -313 160 -356 8 -8 14 -21 14 -27 0 -7 4 -12 8 -12 4 0 16 -14
26 -30 19 -34 99 -123 161 -180 338 -316 849 -456 1410 -386 221 28 455 115
640 239 83 56 221 183 289 267 53 65 173 265 181 300 1 3 9 23 19 45 38 87 91
272 102 355 1 14 6 48 11 75 10 64 10 346 0 405 -11 63 -46 211 -57 235 -4 11
-23 58 -41 105 -37 96 -115 251 -178 355 -62 102 -192 285 -202 285 -5 0 -9 6
-9 13 0 6 -14 27 -30 46 -16 18 -42 49 -57 68 -30 37 -103 119 -218 243 -65
71 -86 95 -165 190 -17 19 -30 40 -30 47 0 6 -4 13 -8 15 -12 4 -92 125 -92
137 0 6 -4 11 -10 11 -5 0 -10 4 -10 10 0 5 -13 31 -28 57 -61 105 -142 302
-156 376 -2 15 -8 32 -12 38 -4 6 -8 56 -9 111 -4 159 32 270 98 305 46 24
114 24 162 2 85 -40 101 -108 103 -429 1 -135 1 -251 2 -258 0 -10 26 -12 115
-10 63 2 115 7 115 11 0 5 4 6 9 3 8 -5 118 6 186 19 83 17 168 36 174 40 4 2
23 7 42 10 18 3 36 9 39 13 3 4 13 8 24 10 10 2 30 8 45 14 14 6 31 12 36 13
15 4 132 61 190 93 109 59 221 153 249 209 9 18 16 34 16 35 -1 2 11 30 25 63
27 59 59 157 69 205 3 14 7 36 10 50 17 76 20 119 21 250 0 80 -3 163 -6 185
-9 61 -39 178 -49 197 -6 10 -10 26 -11 35 0 10 -19 54 -42 98 l-43 80 -49 -1
c-78 -1 -134 -10 -210 -34 -71 -22 -217 -95 -223 -111 -2 -5 -8 -9 -14 -9 -10
0 -106 -76 -120 -95 -5 -6 -29 14 -59 48 -42 47 -109 106 -174 155 -17 12
-118 60 -160 75 -22 8 -49 18 -60 23 -11 4 -25 8 -31 9 -6 2 -21 6 -34 10 -74
24 -208 34 -400 30 -113 -2 -221 -6 -240 -10 -29 -5 -94 -17 -160 -30 -8 -2
-15 -4 -15 -5 0 -1 -11 -3 -25 -6 -14 -2 -42 -11 -63 -19 -20 -8 -40 -15 -45
-16 -8 -2 -49 -16 -72 -26 -8 -3 -17 -7 -20 -8 -3 0 -32 -15 -65 -32 -155 -81
-281 -194 -382 -345 -35 -54 -66 -103 -67 -110 -2 -7 -15 -38 -29 -69 -21 -46
-33 -80 -52 -149 -1 -3 -7 -23 -13 -45 -6 -22 -14 -57 -18 -79 -3 -21 -8 -48
-10 -60 -20 -93 -26 -426 -11 -541 15 -111 35 -216 58 -310 56 -232 176 -530
289 -720 19 -33 42 -72 49 -87 8 -16 18 -28 23 -28 4 0 8 -6 8 -13 0 -7 9 -23
20 -35 11 -12 20 -24 20 -27 0 -7 101 -143 147 -198 21 -24 45 -53 53 -63 8
-11 33 -42 56 -69 54 -67 162 -209 199 -265 16 -25 33 -47 36 -50 13 -11 131
-214 168 -289 42 -87 78 -186 86 -241 10 -71 13 -125 7 -135 -4 -5 -8 -18 -9
-28 -4 -23 -31 -66 -58 -93 -115 -114 -313 -38 -417 161 -59 114 -73 182 -72
340 0 115 8 177 33 286 l18 78 -54 68 c-101 127 -268 275 -398 353 -22 13 -42
26 -45 29 -9 11 -154 81 -210 102 -118 45 -223 74 -305 84 -16 2 -46 6 -65 9
-60 9 -210 10 -325 2 l-111 -7 -27 27 c-15 15 -27 38 -28 53 0 14 -1 308 -1
653 0 695 -3 663 66 704 40 23 47 30 104 86 66 66 70 72 107 146 49 99 69 203
69 357 0 72 -3 153 -6 180 -4 28 -10 70 -13 95 -3 25 -10 61 -15 80 -5 19 -12
49 -15 65 -3 17 -12 55 -20 85 -9 30 -17 62 -19 70 -19 80 -39 131 -51 127
-70 -27 -288 -77 -395 -91 -19 -2 -35 -5 -35 -6 0 0 -20 -3 -45 -5 -25 -1 -81
-6 -125 -10 -378 -32 -968 -37 -1159 -9 -17 2 -56 7 -86 9 -30 3 -71 8 -90 11
-19 3 -53 7 -75 9 -40 4 -99 11 -145 19 -14 2 -52 8 -85 11 -33 4 -71 9 -85
12 -14 2 -38 5 -55 7 -59 7 -120 16 -145 21 -14 3 -45 7 -70 10 -25 3 -56 7
-70 10 -14 2 -54 7 -90 11 -36 4 -72 8 -80 9 -88 13 -167 22 -250 31 -46 5
-428 12 -432 9z m5624 -560 c35 -2 78 -8 96 -14 18 -5 36 -10 40 -10 20 -2 82
-27 122 -49 170 -94 283 -250 340 -469 6 -25 15 -41 23 -38 6 2 30 6 52 9 45
6 50 7 152 35 90 23 249 99 323 153 30 22 88 74 128 115 40 41 76 73 79 70 16
-16 -104 -149 -200 -222 -92 -70 -290 -161 -364 -167 -7 -1 -13 -5 -13 -10 0
-5 -4 -7 -8 -4 -5 3 -26 1 -48 -4 -21 -5 -56 -12 -77 -15 l-38 -6 6 -72 c3
-40 7 -84 9 -100 4 -31 -10 -46 -18 -20 -3 10 -10 47 -15 83 -14 92 -25 147
-46 230 -1 3 -7 19 -14 35 -12 32 -17 44 -21 60 -8 27 -86 143 -123 183 -49
52 -137 114 -189 133 -21 7 -38 17 -38 21 0 4 -3 7 -7 6 -5 -1 -42 4 -83 12
-89 16 -182 19 -265 8 -78 -11 -205 -48 -205 -61 0 -6 -3 -7 -6 -4 -8 8 -88
-38 -128 -73 -61 -52 -126 -125 -126 -139 0 -5 -4 -11 -8 -13 -15 -5 -70 -130
-87 -193 -46 -178 -34 -445 30 -680 9 -33 18 -64 19 -70 2 -5 6 -19 10 -30 5
-11 12 -33 18 -50 6 -16 19 -49 29 -72 11 -24 19 -45 19 -48 0 -16 107 -217
151 -283 16 -24 29 -47 29 -53 0 -5 5 -9 10 -9 6 0 10 -5 10 -10 0 -6 18 -35
40 -65 22 -30 40 -57 40 -60 0 -3 9 -15 20 -27 11 -12 20 -28 20 -35 0 -7 4
-13 8 -13 5 0 17 -16 28 -35 10 -19 22 -35 26 -35 5 0 8 -4 8 -9 0 -6 30 -58
68 -116 37 -58 72 -113 77 -122 6 -9 14 -22 18 -27 19 -25 236 -356 269 -411
84 -139 169 -319 183 -385 2 -8 4 -15 5 -15 2 0 5 -14 14 -53 3 -13 8 -31 11
-41 3 -10 7 -43 9 -74 2 -31 7 -61 11 -66 3 -6 1 -11 -5 -11 -6 0 -8 -5 -4
-12 8 -13 12 -68 4 -68 -3 0 -6 -27 -7 -60 -2 -62 -32 -202 -54 -255 -7 -16
-13 -32 -14 -35 0 -3 -14 -30 -29 -60 -86 -165 -232 -283 -421 -338 -205 -61
-456 -61 -620 0 -133 49 -228 110 -315 201 -61 62 -150 186 -150 206 0 6 -4
11 -10 11 -5 0 -9 3 -8 8 1 4 -7 25 -19 47 -17 34 -43 100 -49 128 -1 4 -2 8
-4 10 -1 1 -3 10 -6 20 -2 9 -6 25 -8 35 -3 9 -5 17 -6 17 -5 0 -30 134 -36
198 -12 131 -4 340 16 432 13 56 12 65 -5 65 -8 0 -15 5 -15 10 0 6 -5 10 -10
10 -6 0 -29 9 -53 19 -46 22 -205 78 -240 86 -12 2 -42 9 -67 16 -59 14 -65
15 -130 24 -30 4 -66 10 -80 12 -49 6 -335 1 -335 -7 0 -1 -12 -3 -26 -5 -55
-7 -95 -15 -126 -24 -18 -5 -33 -8 -33 -6 0 3 -11 0 -25 -5 -14 -5 -25 -6 -25
-1 0 5 15 14 33 21 17 7 41 16 52 21 142 61 434 71 675 22 71 -14 182 -45 225
-63 11 -4 47 -18 80 -31 33 -13 75 -32 93 -42 18 -11 34 -18 35 -16 2 2 16 37
32 77 47 120 77 119 36 -1 -11 -32 -18 -57 -16 -57 3 0 0 -11 -5 -26 -6 -14
-12 -39 -15 -57 -3 -18 -8 -45 -11 -62 -3 -16 -7 -49 -8 -71 -2 -23 -5 -45 -8
-50 -7 -13 -2 -291 6 -339 4 -22 14 -68 22 -103 9 -35 17 -69 18 -77 1 -8 5
-18 9 -21 4 -4 7 -16 7 -26 0 -10 4 -26 9 -36 6 -9 26 -50 46 -91 68 -141 150
-245 257 -326 80 -60 208 -118 288 -131 90 -15 128 -18 210 -18 270 0 443 63
591 215 78 79 153 224 174 336 2 10 4 18 5 18 1 0 3 9 5 20 1 11 6 38 9 60 7
39 8 230 2 270 -1 11 -6 34 -9 50 -4 17 -9 39 -11 50 -11 50 -91 251 -106 265
-3 3 -16 29 -30 57 -14 29 -28 53 -32 53 -5 0 -8 5 -8 11 0 6 -13 31 -30 56
-16 24 -30 46 -30 48 0 8 -64 100 -72 103 -4 2 -8 10 -8 18 0 8 -4 14 -10 14
-5 0 -10 4 -10 10 0 5 -45 77 -100 160 -55 82 -100 152 -100 155 0 6 -40 65
-50 75 -3 3 -14 22 -25 43 -11 21 -27 46 -36 55 -8 9 -18 24 -22 32 -8 16
-170 257 -187 277 -5 7 -10 14 -10 17 0 2 -17 33 -39 67 -99 165 -205 432
-235 597 -9 46 -19 111 -23 142 -7 55 -11 354 -5 364 3 6 7 24 8 40 6 71 101
296 125 296 5 0 9 5 9 12 0 17 119 130 175 165 44 28 110 60 140 69 68 21 144
35 205 40 41 4 77 8 79 10 2 2 8 1 12 -2 5 -2 37 -7 71 -9z m-8424 -678 c9
-42 11 -3017 2 -3017 -4 0 -6 -9 -3 -20 6 -21 -11 -28 -23 -9 -3 6 -8 185 -10
398 -2 212 -6 392 -9 399 -2 6 -1 12 3 12 8 0 6 205 -2 226 -3 7 -2 15 3 18 4
3 4 30 1 61 -3 31 -2 58 2 61 5 3 6 9 4 13 -5 8 -7 51 -6 141 0 30 -2 65 -4
78 -3 12 -1 22 3 22 4 0 4 24 0 53 -3 28 -3 57 0 62 4 6 6 21 4 35 -8 72 2
1474 11 1489 10 15 18 8 24 -22z"/>
</g>
</svg>
